<?xml version="1.0" encoding="utf-8"?>
<!-- Generator: Adobe Illustrator 16.0.0, SVG Export Plug-In . SVG Version: 6.00 Build 0)  -->
<!DOCTYPE svg PUBLIC "-//W3C//DTD SVG 1.1//EN" "http://www.w3.org/Graphics/SVG/1.1/DTD/svg11.dtd">
<svg version="1.1" id="Layer_1" xmlns="http://www.w3.org/2000/svg" xmlns:xlink="http://www.w3.org/1999/xlink" x="0px" y="0px"
	 width="450px" height="82px" viewBox="0 0 450 82" enable-background="new 0 0 450 82" xml:space="preserve">
<text transform="matrix(1 0 0 1 49.8936 20.0566)" font-family="'TimesNewRomanPSMT'" font-size="21.2856">4α</text>
<text transform="matrix(1 0 0 1 71.6885 27.1445)" font-family="'TimesNewRomanPSMT'" font-size="12.4095">n</text>
<text transform="matrix(1 0 0 1 58.126 73.2705)" font-family="'TimesNewRomanPSMT'" font-size="21.2856">β</text>
<text transform="matrix(1 0 0 1 68.9561 80.3584)" font-family="'TimesNewRomanPSMT'" font-size="12.4095">n</text>
<text transform="matrix(1 0 0 1 2 47.4229)" font-family="'TimesNewRomanPSMT'" font-size="21.2856">n</text>
<text transform="matrix(1 0 0 1 12.6431 54.5117)" font-family="'TimesNewRomanPSMT'" font-size="12.4095">0</text>
<text transform="matrix(1 0 0 1 108.8076 47.4229)" font-family="'TimesNewRomanPSMT'" font-size="21.2856">n</text>
<text transform="matrix(1 0 0 1 119.4507 54.5117)" font-family="'TimesNewRomanPSMT'" font-size="12.4095">1</text>
<text transform="matrix(1 0 0 1 215.6167 47.4229)" font-family="'TimesNewRomanPSMT'" font-size="21.2856">n</text>
<text transform="matrix(1 0 0 1 226.2598 54.5117)" font-family="'TimesNewRomanPSMT'" font-size="12.4095">2</text>
<text transform="matrix(1 0 0 1 322.4258 47.4229)" font-family="'TimesNewRomanPSMT'" font-size="21.2856">n</text>
<text transform="matrix(1 0 0 1 333.0684 54.5117)" font-family="'TimesNewRomanPSMT'" font-size="12.4095">3</text>
<text transform="matrix(1 0 0 1 429.2344 47.4229)" font-family="'TimesNewRomanPSMT'" font-size="21.2856">n</text>
<text transform="matrix(1 0 0 1 439.877 54.5117)" font-family="'TimesNewRomanPSMT'" font-size="12.4095">4</text>
<g>
	<g>
		<g>
			<line fill="none" stroke="#000000" stroke-miterlimit="10" x1="37.981" y1="39.06" x2="87.417" y2="39.06"/>
			<g>
				<path d="M90.435,39.06c-1.42,0.527-3.182,1.426-4.273,2.378l0.86-2.378l-0.86-2.377C87.253,37.634,89.015,38.533,90.435,39.06z"
					/>
			</g>
		</g>
	</g>
	<g>
		<g>
			<line fill="none" stroke="#000000" stroke-miterlimit="10" x1="88.155" y1="45.9" x2="40.239" y2="45.9"/>
			<g>
				<path d="M37.221,45.9c1.42-0.526,3.182-1.426,4.273-2.377l-0.86,2.377l0.86,2.377C40.403,47.327,38.641,46.428,37.221,45.9z"/>
			</g>
		</g>
	</g>
</g>
<g>
	<g>
		<g>
			<line fill="none" stroke="#000000" stroke-miterlimit="10" x1="144.79" y1="39.06" x2="194.226" y2="39.06"/>
			<g>
				<path d="M197.244,39.06c-1.42,0.527-3.182,1.426-4.273,2.378l0.86-2.378l-0.86-2.377
					C194.062,37.634,195.824,38.533,197.244,39.06z"/>
			</g>
		</g>
	</g>
	<g>
		<g>
			<line fill="none" stroke="#000000" stroke-miterlimit="10" x1="194.963" y1="45.9" x2="147.047" y2="45.9"/>
			<g>
				<path d="M144.029,45.9c1.42-0.526,3.182-1.426,4.274-2.377l-0.86,2.377l0.86,2.377C147.211,47.327,145.449,46.428,144.029,45.9z
					"/>
			</g>
		</g>
	</g>
</g>
<g>
	<g>
		<g>
			<line fill="none" stroke="#000000" stroke-miterlimit="10" x1="251.598" y1="39.06" x2="301.036" y2="39.06"/>
			<g>
				<path d="M304.053,39.06c-1.42,0.527-3.182,1.426-4.273,2.378l0.859-2.378l-0.859-2.377
					C300.872,37.634,302.633,38.533,304.053,39.06z"/>
			</g>
		</g>
	</g>
	<g>
		<g>
			<line fill="none" stroke="#000000" stroke-miterlimit="10" x1="301.771" y1="45.9" x2="253.855" y2="45.9"/>
			<g>
				<path d="M250.838,45.9c1.42-0.526,3.182-1.426,4.273-2.377l-0.859,2.377l0.859,2.377C254.02,47.327,252.258,46.428,250.838,45.9
					z"/>
			</g>
		</g>
	</g>
</g>
<g>
	<g>
		<g>
			<line fill="none" stroke="#000000" stroke-miterlimit="10" x1="358.406" y1="39.06" x2="407.844" y2="39.06"/>
			<g>
				<path d="M410.861,39.06c-1.42,0.527-3.183,1.426-4.273,2.378l0.859-2.378l-0.859-2.377
					C407.68,37.634,409.441,38.533,410.861,39.06z"/>
			</g>
		</g>
	</g>
	<g>
		<g>
			<line fill="none" stroke="#000000" stroke-miterlimit="10" x1="408.58" y1="45.9" x2="360.664" y2="45.9"/>
			<g>
				<path d="M357.646,45.9c1.42-0.526,3.182-1.426,4.272-2.377l-0.861,2.377l0.861,2.377
					C360.828,47.327,359.066,46.428,357.646,45.9z"/>
			</g>
		</g>
	</g>
</g>
<text transform="matrix(1 0 0 1 156.5752 20.0566)" font-family="'TimesNewRomanPSMT'" font-size="21.2856">3α</text>
<text transform="matrix(1 0 0 1 178.3701 27.1445)" font-family="'TimesNewRomanPSMT'" font-size="12.4095">n</text>
<text transform="matrix(1 0 0 1 263.2568 20.0566)" font-family="'TimesNewRomanPSMT'" font-size="21.2856">2α</text>
<text transform="matrix(1 0 0 1 285.0518 27.1445)" font-family="'TimesNewRomanPSMT'" font-size="12.4095">n</text>
<text transform="matrix(1 0 0 1 372.9805 20.0566)" font-family="'TimesNewRomanPSMT'" font-size="21.2856">α</text>
<text transform="matrix(1 0 0 1 384.1328 27.1445)" font-family="'TimesNewRomanPSMT'" font-size="12.4095">n</text>
<text transform="matrix(1 0 0 1 160.2461 73.2705)" font-family="'TimesNewRomanPSMT'" font-size="21.2856">2β</text>
<text transform="matrix(1 0 0 1 181.7188 80.3584)" font-family="'TimesNewRomanPSMT'" font-size="12.4095">n</text>
<text transform="matrix(1 0 0 1 265.4082 73.2705)" font-family="'TimesNewRomanPSMT'" font-size="21.2856">3β</text>
<text transform="matrix(1 0 0 1 286.8799 80.3584)" font-family="'TimesNewRomanPSMT'" font-size="12.4095">n</text>
<text transform="matrix(1 0 0 1 373.6094 73.2705)" font-family="'TimesNewRomanPSMT'" font-size="21.2856">4β</text>
<text transform="matrix(1 0 0 1 395.082 80.3584)" font-family="'TimesNewRomanPSMT'" font-size="12.4095">n</text>
</svg>
